<svg width="122" height="138" viewBox="0 0 122 138" fill="none" xmlns="http://www.w3.org/2000/svg">
<path d="M44.0281 40.2099L86.5779 15.3451V35.4282L60.2831 50.7296L44.0281 40.2099Z" fill="white" stroke="white"/>
<path d="M32.0758 120.542L19.6455 112.892V53.5986L32.0758 47.3824V120.542Z" fill="white" stroke="white"/>
<path d="M60.2825 136.8L46.896 128.671V60.2929L60.2825 52.1641V68.9L87.0554 53.5986V83.7232L60.2825 99.0246V136.8Z" fill="white" stroke="white"/>
<path d="M1 101.894V33.9937L57.8924 1H64.1076L87.0558 14.8669L43.0717 40.688L60.2829 51.2078L46.4183 59.8148V128.671L32.5538 120.542L32.0757 46.9042L19.1673 54.0768V112.892L1 101.894Z" fill="#052A92" stroke="#052A92"/>
<path d="M60.761 51.2077L87.0558 35.9063V14.8669L120.044 33.9936L87.0558 83.2451V53.1204L60.761 67.9436V51.2077Z" fill="#0A9EF8" stroke="#0A9EF8"/>
<path d="M87.0558 83.7232L60.761 98.5465V136.8L121 102.372L120.044 33.9937L87.0558 83.7232Z" fill="#052A92" stroke="#052A92"/>
</svg>
